<svg xmlns="http://www.w3.org/2000/svg" height="48" viewBox="0 96 960 960" width="48"><path d="M890 297q0-54-38.5-92.5T759 166v-50q75 0 128 53t53 128h-50Zm-650 719q-84 0-142-58T40 816h50q0 63 43.393 106.5T240 966v50Zm150 0q-22.235 0-42.618-7.5Q327 1001 312 984L41 703l49-45q13-11 32-12t35 8l109 66V246q0-12.75 8.675-21.375 8.676-8.625 21.5-8.625 12.825 0 21.325 8.625T326 246v580L128 707l227 234q8 7 16.5 11t18.5 4h299.93Q727 956 753 930.125T779 866V286q0-12.75 8.675-21.375 8.676-8.625 21.5-8.625 12.825 0 21.325 8.625T839 286v580q1 63-43.062 106.5Q751.875 1016 690 1016H390Zm47-440V166q0-12.75 8.675-21.375 8.676-8.625 21.5-8.625 12.825 0 21.325 8.625T497 166v410h-60Zm171 0V206q0-12.75 8.675-21.375 8.676-8.625 21.5-8.625 12.825 0 21.325 8.625T668 206v370h-60ZM355 956h424-424Z"/></svg>